# xmcd
#
# Track frame offsets: 
#        182
#        12000
#        24685
#        37517
#        49580
#        63435
#        80917
#        90850
#        104622
#        117272
#        129947
#        141715
#        157297
#        171415
#        189460
#        203095
#        217290
#        233477
#
# Disc length: 3288 seconds
#
# Revision: 4
# Processed by: cddbd v1.5.2PL0 Copyright (c) Steve Scherf et al.
# Submitted via: ExactAudioCopy v1.0b3
#
DISCID=fa0cd612
DTITLE=Various Artist - Brothers In Blues And Sisters In Soul
DYEAR=1994
DGENRE=Soul
TTITLE0=Sledge, Percy - (Sittin' On) The Dock Of The Bay
TTITLE1=Thomas, Carla - B-A-B-Y
TTITLE2=Bob And Earl - Harlem Shuffle
TTITLE3=Reeves, Martha - Dancing In The Street
TTITLE4=Cortez, David 'Baby' - Green Onions
TTITLE5=Blues Image - Ride Captain Ride
TTITLE6=Everett, Berry - It's In His Kiss (The Shoop Shoop Song)
TTITLE7=Floyd, Eddie - Knock On Wood
TTITLE8=Wells, Mary - My Guy
TTITLE9=Bass, Fontella - Rescue Me
TTITLE10=Sam And Dave - Soul Man
TTITLE11=Reeves, Martha - I Say A Little Prayer
TTITLE12=Neville, Aaron - Tell It Like It Is
TTITLE13=Gray, Dobie - Drift Away
TTITLE14=King, Ben E. - Stand By Me
TTITLE15=James, Etta - All I Could Do Was Cry
TTITLE16=Melvin, Harold and The Bluenotes - Wake Up Everybody
TTITLE17=Sledge, Percy - When A Man Loves A Woman
EXTD=
EXTT0=
EXTT1=
EXTT2=
EXTT3=
EXTT4=
EXTT5=
EXTT6=
EXTT7=
EXTT8=
EXTT9=
EXTT10=
EXTT11=
EXTT12=
EXTT13=
EXTT14=
EXTT15=
EXTT16=
EXTT17=
PLAYORDER=
